<svg id="svg" version="1.1" xmlns="http://www.w3.org/2000/svg" xmlns:xlink="http://www.w3.org/1999/xlink" width="400" height="400" viewBox="0, 0, 400,400"><g id="svgg"><path id="path0" d="M13.395 139.600 C 13.395 172.710,13.442 186.255,13.500 169.700 C 13.558 153.145,13.558 126.055,13.500 109.500 C 13.442 92.945,13.395 106.490,13.395 139.600 M303.400 92.800 L 297.400 93.033 303.276 93.116 C 306.856 93.167,309.249 93.044,309.400 92.800 C 309.536 92.580,309.592 92.438,309.524 92.484 C 309.456 92.530,306.700 92.672,303.400 92.800 M252.181 99.300 L 250.600 101.000 252.300 99.419 C 253.881 97.948,254.184 97.600,253.881 97.600 C 253.816 97.600,253.051 98.365,252.181 99.300 M50.800 107.505 C 50.800 107.673,50.399 107.988,49.910 108.205 C 49.420 108.422,48.610 109.212,48.110 109.959 L 47.200 111.318 47.200 166.505 L 47.200 221.691 48.046 223.196 C 49.878 226.455,49.464 226.400,71.994 226.400 L 91.913 226.400 92.657 224.700 C 93.360 223.092,93.404 221.173,93.475 189.200 C 93.517 170.610,93.444 155.662,93.315 155.982 C 93.185 156.302,92.746 156.921,92.339 157.357 C 91.933 157.794,91.600 158.264,91.600 158.401 C 91.600 160.386,67.463 161.563,63.880 159.753 C 62.264 158.937,60.800 157.611,60.800 156.964 C 60.800 156.690,60.598 156.399,60.350 156.317 C 59.290 155.963,59.816 150.856,61.076 149.275 C 63.358 146.412,64.199 146.217,75.000 146.061 C 88.439 145.865,91.022 146.467,92.996 150.251 C 93.541 151.297,93.595 150.394,93.598 140.211 C 93.600 129.538,93.568 129.068,92.916 130.011 C 90.461 133.563,90.308 133.597,76.800 133.598 C 66.354 133.599,64.843 133.518,63.628 132.899 C 58.807 130.441,58.425 123.919,62.916 120.716 C 64.244 119.769,83.046 119.078,87.907 119.798 C 89.589 120.047,92.719 122.467,93.342 124.000 C 93.476 124.330,93.527 121.360,93.455 117.400 C 93.353 111.755,93.180 109.876,92.657 108.700 L 91.989 107.200 71.395 107.200 C 60.068 107.200,50.800 107.337,50.800 107.505 M155.789 108.989 L 154.000 110.779 154.000 136.416 C 154.000 165.012,153.831 163.365,156.982 165.427 C 158.333 166.311,196.752 166.882,198.323 166.041 C 199.907 165.194,200.000 163.552,200.000 136.567 C 200.000 113.516,199.927 110.436,199.346 108.913 L 198.691 107.200 178.135 107.200 L 157.579 107.200 155.789 108.989 M263.824 107.722 C 260.274 109.908,260.398 108.860,260.419 136.719 C 260.442 165.666,260.298 164.827,265.431 166.017 C 267.328 166.457,345.591 166.520,346.280 166.083 C 346.609 165.873,340.621 156.592,327.250 136.589 L 307.740 107.400 286.170 107.322 C 270.013 107.263,264.405 107.363,263.824 107.722 M120.193 155.600 C 120.193 179.910,120.241 189.855,120.300 177.700 C 120.359 165.545,120.359 145.655,120.300 133.500 C 120.241 121.345,120.193 131.290,120.193 155.600 M139.788 136.800 C 139.788 150.550,139.838 156.175,139.900 149.300 C 139.961 142.425,139.961 131.175,139.900 124.300 C 139.838 117.425,139.788 123.050,139.788 136.800 M246.588 136.600 C 246.588 150.240,246.638 155.878,246.700 149.129 C 246.761 142.380,246.761 131.220,246.700 124.329 C 246.638 117.438,246.588 122.960,246.588 136.600 M171.529 180.300 C 178.199 180.361,188.999 180.361,195.529 180.300 C 202.058 180.238,196.600 180.188,183.400 180.188 C 170.200 180.188,164.858 180.238,171.529 180.300 M284.400 180.296 C 332.444 180.569,367.906 180.571,367.738 180.300 C 367.636 180.135,344.748 180.043,316.876 180.096 C 289.004 180.149,274.390 180.238,284.400 180.296 M371.718 199.898 C 373.433 199.973,376.133 199.972,377.718 199.897 C 379.303 199.821,377.900 199.759,374.600 199.760 C 371.300 199.761,370.003 199.822,371.718 199.898 " stroke="none" fill="#319fcf" fill-rule="evenodd"></path><path id="path1" d="M16.799 74.498 C 16.070 74.994,15.097 75.908,14.637 76.529 L 13.800 77.659 13.696 138.836 L 13.592 200.014 23.296 199.907 L 33.000 199.800 33.200 154.200 L 33.400 108.600 34.266 106.488 C 36.767 100.390,40.785 96.611,47.600 93.947 C 48.737 93.503,54.230 93.400,76.800 93.400 L 104.600 93.400 107.000 94.371 C 112.746 96.694,117.028 101.059,118.999 106.600 C 120.353 110.409,120.400 112.068,120.400 156.300 L 120.400 200.000 197.820 200.000 C 282.924 200.000,276.352 199.801,278.574 202.441 C 279.161 203.140,279.745 204.223,279.869 204.847 C 280.256 206.781,280.490 206.822,290.434 206.707 L 299.768 206.600 300.044 205.249 C 300.382 203.592,301.469 202.075,303.127 200.946 L 304.381 200.092 342.163 199.940 C 362.944 199.856,380.061 199.672,380.202 199.531 C 380.391 199.342,369.246 182.075,368.112 180.800 C 368.014 180.690,344.414 180.509,315.667 180.398 L 263.400 180.196 260.771 179.304 C 254.427 177.151,249.895 172.725,247.560 166.400 L 246.600 163.800 246.600 136.800 C 246.600 106.658,246.499 107.853,249.454 102.931 C 251.572 99.404,254.798 96.522,258.400 94.939 C 258.950 94.697,259.940 94.265,260.600 93.979 C 261.512 93.583,267.455 93.385,285.343 93.153 C 298.292 92.985,308.974 92.759,309.082 92.652 C 309.406 92.327,307.040 89.143,304.231 86.123 C 300.715 82.341,294.680 78.282,289.700 76.349 C 289.205 76.157,288.395 75.834,287.900 75.630 C 287.405 75.427,286.460 75.147,285.800 75.009 C 285.140 74.870,283.790 74.553,282.800 74.303 C 281.481 73.970,245.907 73.815,149.562 73.723 L 18.124 73.596 16.799 74.498 M212.600 93.957 C 213.260 94.263,214.754 94.956,215.921 95.496 C 220.269 97.512,224.071 102.011,225.838 107.232 L 226.800 110.077 226.800 136.492 C 226.800 163.820,226.779 164.216,225.101 167.998 C 222.655 173.514,218.656 177.137,212.600 179.324 C 209.849 180.317,165.271 180.910,158.216 180.047 C 148.709 178.884,141.935 172.644,140.144 163.400 C 139.461 159.879,139.352 114.356,140.017 110.573 C 141.565 101.772,148.401 94.545,156.200 93.468 C 159.763 92.975,211.451 93.424,212.600 93.957 " stroke="none" fill="#f1f1f1" fill-rule="evenodd"></path><path id="path2" d="M279.750 208.000 C 279.613 208.770,279.069 209.979,278.541 210.686 C 276.517 213.397,283.014 213.187,197.598 213.299 L 120.200 213.400 119.962 218.867 C 119.832 221.874,119.498 224.934,119.222 225.667 C 116.444 233.041,110.909 238.117,104.080 239.554 C 99.891 240.436,51.528 240.151,48.187 239.225 C 38.659 236.585,33.951 229.946,33.276 218.200 L 33.000 213.400 23.200 213.400 L 13.400 213.400 13.400 236.600 L 13.400 259.800 181.000 259.923 C 352.530 260.049,350.536 260.064,356.200 258.596 C 371.316 254.678,381.857 243.729,385.656 228.000 C 386.239 225.586,386.414 214.281,385.877 213.744 C 385.699 213.565,367.429 213.358,345.277 213.283 C 302.600 213.137,303.561 213.181,301.927 211.319 C 301.026 210.292,300.000 208.163,300.000 207.320 C 300.000 206.646,299.362 206.600,289.999 206.600 L 279.998 206.600 279.750 208.000 " stroke="none" fill="#f14232" fill-rule="evenodd"></path><path id="path3" d="M149.800 73.615 C 248.460 73.779,282.255 73.952,283.600 74.301 C 284.590 74.558,286.018 74.952,286.774 75.177 C 287.529 75.402,288.222 75.511,288.314 75.419 C 288.406 75.328,287.698 75.039,286.740 74.777 C 280.744 73.138,286.052 73.195,148.800 73.298 L 17.800 73.396 149.800 73.615 M289.556 76.033 C 290.481 76.403,293.088 77.572,293.700 77.891 C 293.865 77.977,294.000 77.952,294.000 77.835 C 294.000 77.538,289.681 75.595,289.088 75.625 C 288.820 75.639,289.030 75.823,289.556 76.033 M13.449 77.815 C 13.312 78.173,13.215 78.766,13.234 79.133 C 13.253 79.500,13.427 79.269,13.621 78.620 C 13.998 77.358,13.865 76.733,13.449 77.815 M294.438 78.171 C 294.532 78.265,295.957 79.225,297.604 80.303 C 301.951 83.149,308.824 90.296,309.282 92.446 C 309.381 92.911,305.790 93.033,287.000 93.205 L 264.600 93.410 287.300 93.505 C 306.543 93.586,310.000 93.515,310.000 93.040 C 310.000 91.182,302.546 83.180,297.918 80.071 C 295.343 78.340,293.723 77.456,294.438 78.171 M63.929 93.500 C 71.040 93.561,82.560 93.561,89.529 93.500 C 96.498 93.438,90.680 93.388,76.600 93.388 C 62.520 93.388,56.818 93.439,63.929 93.500 M170.729 93.500 C 177.840 93.561,189.360 93.561,196.329 93.500 C 203.298 93.438,197.480 93.388,183.400 93.388 C 169.320 93.388,163.618 93.439,170.729 93.500 M46.372 94.521 C 43.979 95.465,40.402 97.609,40.401 98.099 C 40.400 98.264,41.255 97.790,42.300 97.047 C 44.115 95.756,47.867 94.207,50.000 93.868 C 50.867 93.730,50.840 93.704,49.800 93.675 C 49.140 93.657,47.597 94.037,46.372 94.521 M102.900 93.876 C 103.285 93.976,103.915 93.976,104.300 93.876 C 104.685 93.775,104.370 93.693,103.600 93.693 C 102.830 93.693,102.515 93.775,102.900 93.876 M155.700 93.876 C 156.085 93.976,156.715 93.976,157.100 93.876 C 157.485 93.775,157.170 93.693,156.400 93.693 C 155.630 93.693,155.315 93.775,155.700 93.876 M209.233 93.743 C 209.325 93.822,210.120 93.997,211.000 94.132 C 212.090 94.299,212.409 94.255,212.000 93.995 C 211.453 93.646,208.845 93.409,209.233 93.743 M261.221 93.979 C 260.846 94.216,261.270 94.265,262.421 94.118 C 263.399 93.992,264.275 93.825,264.367 93.745 C 264.742 93.419,261.755 93.640,261.221 93.979 M214.200 95.082 C 215.080 95.435,216.655 96.325,217.700 97.061 C 218.745 97.797,219.600 98.264,219.599 98.099 C 219.598 97.450,214.121 94.372,213.054 94.421 C 212.804 94.432,213.320 94.730,214.200 95.082 M256.400 96.039 C 254.461 97.196,250.460 101.150,249.761 102.600 L 249.182 103.800 249.887 102.800 C 251.471 100.556,254.720 97.436,256.600 96.357 C 257.700 95.725,258.420 95.206,258.200 95.205 C 257.980 95.204,257.170 95.579,256.400 96.039 M146.664 98.427 C 145.648 99.322,144.432 100.627,143.963 101.327 C 143.274 102.356,143.374 102.300,144.488 101.032 C 145.245 100.170,146.570 98.868,147.432 98.138 C 148.295 97.409,148.890 96.809,148.756 96.806 C 148.622 96.803,147.681 97.532,146.664 98.427 M114.201 99.561 C 115.082 100.572,116.107 101.850,116.480 102.400 C 116.853 102.950,117.167 103.200,117.179 102.955 C 117.191 102.710,116.165 101.432,114.900 100.115 C 113.635 98.799,113.321 98.549,114.201 99.561 M38.959 99.300 C 37.305 101.208,36.625 102.226,37.825 100.997 C 39.234 99.555,40.165 98.400,39.919 98.400 C 39.820 98.400,39.388 98.805,38.959 99.300 M221.355 100.119 C 222.203 101.153,222.980 102.000,223.082 102.000 C 223.355 102.000,220.821 98.860,220.277 98.524 C 220.022 98.366,220.507 99.084,221.355 100.119 M141.737 105.026 C 141.176 106.250,140.788 107.321,140.873 107.406 C 140.958 107.492,141.502 106.490,142.080 105.181 C 142.659 103.871,143.048 102.800,142.944 102.800 C 142.841 102.800,142.297 103.802,141.737 105.026 M52.600 106.567 C 52.380 106.657,51.708 106.838,51.108 106.971 C 49.737 107.273,47.310 109.662,46.906 111.108 C 46.204 113.613,46.549 221.707,47.262 223.000 C 49.436 226.941,48.672 226.846,77.018 226.715 C 104.771 226.586,103.400 226.734,105.472 223.658 C 106.840 221.629,106.847 221.259,106.720 164.766 L 106.600 111.331 105.466 109.695 C 103.299 106.568,104.428 106.694,77.210 106.541 C 63.895 106.466,52.820 106.478,52.600 106.567 M157.874 106.980 C 153.066 108.694,153.200 107.840,153.201 136.684 C 153.201 164.384,153.050 162.904,156.137 165.372 L 157.674 166.600 182.977 166.600 C 211.788 166.600,210.154 166.791,212.369 163.158 C 213.183 161.823,213.197 161.378,213.199 136.559 L 213.200 111.318 212.290 109.969 C 210.388 107.146,209.746 106.958,200.972 106.665 C 186.341 106.175,159.582 106.370,157.874 106.980 M265.200 106.747 C 263.424 107.196,261.696 108.492,260.838 110.018 C 259.807 111.852,259.493 161.103,260.500 162.905 C 261.402 164.519,263.107 165.937,264.667 166.370 C 267.678 167.206,358.404 166.945,358.379 166.100 C 358.367 165.715,349.577 152.260,338.846 136.200 L 319.335 107.000 312.368 106.749 C 303.289 106.421,266.495 106.420,265.200 106.747 M92.657 108.700 C 93.180 109.876,93.353 111.755,93.455 117.400 C 93.527 121.360,93.476 124.330,93.342 124.000 C 92.719 122.467,89.589 120.047,87.907 119.798 C 83.046 119.078,64.244 119.769,62.916 120.716 C 58.425 123.919,58.807 130.441,63.628 132.899 C 64.843 133.518,66.354 133.599,76.800 133.598 C 90.308 133.597,90.461 133.563,92.916 130.011 C 93.568 129.068,93.600 129.538,93.598 140.211 C 93.595 150.394,93.541 151.297,92.996 150.251 C 91.022 146.467,88.439 145.865,75.000 146.061 C 64.199 146.217,63.358 146.412,61.076 149.275 C 59.816 150.856,59.290 155.963,60.350 156.317 C 60.598 156.399,60.800 156.690,60.800 156.964 C 60.800 157.611,62.264 158.937,63.880 159.753 C 67.463 161.563,91.600 160.386,91.600 158.401 C 91.600 158.264,91.933 157.794,92.339 157.357 C 92.746 156.921,93.185 156.302,93.315 155.982 C 93.444 155.662,93.517 170.610,93.475 189.200 C 93.404 221.173,93.360 223.092,92.657 224.700 L 91.913 226.400 71.994 226.400 C 49.464 226.400,49.878 226.455,48.046 223.196 L 47.200 221.691 47.200 166.505 L 47.200 111.318 48.110 109.959 C 48.610 109.212,49.420 108.422,49.910 108.205 C 50.399 107.988,50.800 107.673,50.800 107.505 C 50.800 107.337,60.068 107.200,71.395 107.200 L 91.989 107.200 92.657 108.700 M119.044 108.200 C 119.373 109.671,119.602 109.990,119.594 108.967 C 119.591 108.545,119.405 107.930,119.182 107.600 C 118.885 107.162,118.848 107.324,119.044 108.200 M199.346 108.913 C 199.927 110.436,200.000 113.516,200.000 136.567 C 200.000 163.552,199.907 165.194,198.323 166.041 C 196.752 166.882,158.333 166.311,156.982 165.427 C 153.831 163.365,154.000 165.012,154.000 136.416 L 154.000 110.779 155.789 108.989 L 157.579 107.200 178.135 107.200 L 198.691 107.200 199.346 108.913 M225.668 107.800 C 225.662 108.240,225.811 108.960,226.000 109.400 C 226.438 110.419,226.438 109.368,226.000 108.000 C 225.743 107.196,225.677 107.157,225.668 107.800 M327.250 136.589 C 340.621 156.592,346.609 165.873,346.280 166.083 C 345.591 166.520,267.328 166.457,265.431 166.017 C 260.298 164.827,260.442 165.666,260.419 136.719 C 260.399 110.707,260.395 110.774,262.223 109.000 C 264.072 107.205,263.588 107.239,286.170 107.322 L 307.740 107.400 327.250 136.589 M33.873 108.153 C 33.723 108.545,33.611 109.166,33.625 109.533 C 33.642 109.975,33.781 109.874,34.037 109.234 C 34.249 108.703,34.361 108.082,34.285 107.854 C 34.209 107.627,34.024 107.761,33.873 108.153 M140.200 110.000 C 140.045 111.128,140.002 112.136,140.106 112.239 C 140.209 112.342,140.416 111.500,140.567 110.367 C 140.717 109.234,140.759 108.226,140.661 108.128 C 140.563 108.029,140.355 108.872,140.200 110.000 M247.049 108.615 C 246.912 108.973,246.821 109.746,246.846 110.333 C 246.880 111.132,246.970 110.998,247.204 109.800 C 247.535 108.100,247.462 107.540,247.049 108.615 M119.695 154.876 C 119.643 179.448,119.735 199.636,119.900 199.738 C 120.171 199.906,120.169 168.304,119.895 126.200 C 119.838 117.400,119.748 130.304,119.695 154.876 M226.589 136.600 C 226.589 150.900,226.639 156.692,226.700 149.471 C 226.761 142.250,226.761 130.550,226.700 123.471 C 226.639 116.392,226.589 122.300,226.589 136.600 M33.103 155.800 C 33.047 180.110,33.135 200.000,33.300 200.000 C 33.465 200.000,33.600 180.110,33.600 155.800 C 33.600 131.490,33.512 111.600,33.403 111.600 C 33.295 111.600,33.160 131.490,33.103 155.800 M90.699 121.806 C 94.675 125.209,93.288 131.962,88.412 132.938 C 86.298 133.360,66.346 133.236,64.739 132.790 C 59.885 131.441,58.784 124.677,62.892 121.440 L 64.200 120.409 76.628 120.404 L 89.056 120.400 90.699 121.806 M89.582 147.591 C 94.787 150.246,94.074 157.853,88.464 159.534 C 85.261 160.493,66.073 160.153,63.988 159.100 C 59.151 156.657,59.042 149.969,63.800 147.598 C 66.240 146.382,87.202 146.376,89.582 147.591 M140.095 162.000 C 140.095 162.550,140.232 163.540,140.400 164.200 C 140.672 165.270,140.705 165.292,140.705 164.400 C 140.705 163.850,140.568 162.860,140.400 162.200 C 140.128 161.130,140.095 161.108,140.095 162.000 M246.806 163.033 C 246.809 163.675,246.984 164.470,247.195 164.800 C 247.455 165.209,247.499 164.890,247.332 163.800 C 247.029 161.823,246.798 161.486,246.806 163.033 M225.849 164.215 C 225.712 164.573,225.615 165.166,225.634 165.533 C 225.653 165.900,225.827 165.669,226.021 165.020 C 226.398 163.758,226.265 163.133,225.849 164.215 M224.260 168.811 C 222.898 171.697,220.279 174.681,217.601 176.399 C 215.356 177.840,214.908 178.430,216.900 177.323 C 220.041 175.576,226.493 167.559,225.531 166.597 C 225.447 166.513,224.875 167.509,224.260 168.811 M248.405 168.222 C 248.398 168.824,250.618 172.244,251.261 172.621 C 251.567 172.801,251.512 172.606,251.131 172.169 C 250.764 171.746,250.001 170.590,249.436 169.600 C 248.872 168.610,248.407 167.990,248.405 168.222 M142.708 170.200 C 143.228 171.199,145.600 174.200,145.600 173.858 C 145.600 173.635,143.033 170.106,142.502 169.600 C 142.386 169.490,142.479 169.760,142.708 170.200 M252.488 174.213 C 253.086 174.843,253.647 175.277,253.735 175.179 C 253.823 175.080,253.333 174.565,252.647 174.034 L 251.400 173.069 252.488 174.213 M147.400 175.412 C 148.280 176.215,149.540 177.129,150.200 177.442 C 150.881 177.765,151.074 177.793,150.647 177.506 C 150.232 177.228,148.972 176.314,147.847 175.476 L 145.800 173.953 147.400 175.412 M211.200 179.200 C 210.405 179.714,211.404 179.714,212.600 179.200 L 213.400 178.856 212.600 178.834 C 212.160 178.822,211.530 178.987,211.200 179.200 M170.329 179.900 C 177.660 179.961,189.540 179.961,196.729 179.900 C 203.918 179.839,197.920 179.789,183.400 179.789 C 168.880 179.789,162.998 179.839,170.329 179.900 M315.468 179.900 L 367.535 180.003 368.690 181.501 C 369.325 182.326,372.066 186.330,374.780 190.400 C 379.158 196.966,381.215 199.858,380.185 198.000 C 379.081 196.010,368.554 180.515,368.032 180.113 C 367.541 179.734,355.772 179.645,315.400 179.711 L 263.400 179.797 315.468 179.900 M276.400 200.925 C 276.400 200.993,276.985 201.472,277.700 201.988 L 279.000 202.927 278.030 201.863 C 277.202 200.955,276.400 200.493,276.400 200.925 M302.492 201.421 C 302.005 201.762,301.413 202.437,301.176 202.921 L 300.746 203.800 301.473 202.912 C 301.873 202.423,302.560 201.754,303.000 201.425 C 304.061 200.630,303.625 200.627,302.492 201.421 M194.163 275.259 C 195.003 280.512,199.202 286.435,204.400 289.699 C 217.823 298.128,236.414 290.252,239.333 274.900 L 239.580 273.600 216.739 273.600 L 193.898 273.600 194.163 275.259 M280.400 273.934 C 280.400 278.206,285.927 286.366,290.982 289.559 C 304.210 297.913,323.506 290.019,325.833 275.300 L 326.102 273.600 303.251 273.600 C 290.683 273.600,280.400 273.750,280.400 273.934 M16.630 307.700 C 11.673 310.539,11.860 323.136,16.898 325.889 C 18.733 326.891,379.624 327.011,382.000 326.010 C 387.887 323.530,388.428 310.994,382.796 307.600 C 381.915 307.069,360.772 306.988,200.000 306.900 L 18.200 306.801 16.630 307.700 " stroke="none" fill="#2176ac" fill-rule="evenodd"></path><path id="path4" d="M16.600 59.288 C 15.500 59.498,14.287 59.834,13.905 60.035 C 13.523 60.236,12.955 60.400,12.643 60.400 C 10.302 60.400,2.000 67.426,2.000 69.407 C 2.000 69.733,1.820 70.000,1.600 70.000 C 1.380 70.000,1.200 70.345,1.200 70.767 C 1.200 71.188,0.975 71.608,0.700 71.700 C 0.302 71.833,0.179 92.181,0.095 171.286 L -0.009 270.705 1.156 271.953 C 1.797 272.639,2.609 273.200,2.960 273.200 C 3.312 273.200,3.600 273.380,3.600 273.600 C 3.600 273.865,33.133 274.000,91.400 274.000 L 179.200 274.000 179.200 275.000 C 179.200 275.550,179.380 276.000,179.600 276.000 C 179.820 276.000,180.000 276.900,180.000 278.000 C 180.000 279.100,180.180 280.000,180.400 280.000 C 180.620 280.000,180.800 280.540,180.800 281.200 C 180.800 281.860,180.980 282.400,181.200 282.400 C 181.420 282.400,181.600 282.940,181.600 283.600 C 181.600 284.260,181.780 284.800,182.000 284.800 C 182.220 284.800,182.400 285.160,182.400 285.600 C 182.400 286.040,182.580 286.400,182.800 286.400 C 183.020 286.400,183.200 286.760,183.200 287.200 C 183.200 287.640,183.380 288.000,183.600 288.000 C 183.820 288.000,184.000 288.236,184.000 288.525 C 184.000 288.813,184.360 289.436,184.800 289.908 C 185.240 290.380,185.600 290.954,185.600 291.183 C 185.600 291.412,185.780 291.600,186.000 291.600 C 186.220 291.600,186.400 291.780,186.400 292.000 C 186.400 292.265,157.888 292.406,101.700 292.418 C 16.906 292.435,14.192 292.475,12.953 293.714 C 12.795 293.871,12.334 294.000,11.928 294.000 C 11.036 294.000,9.645 294.746,8.757 295.700 C 8.399 296.085,7.931 296.400,7.717 296.400 C 7.120 296.400,3.871 299.660,3.232 300.900 C 2.920 301.505,2.515 302.000,2.332 302.000 C 2.150 302.000,2.000 302.360,2.000 302.800 C 2.000 303.240,1.820 303.600,1.600 303.600 C 1.380 303.600,1.200 303.945,1.200 304.367 C 1.200 304.788,0.975 305.208,0.700 305.300 C 0.316 305.428,0.200 308.089,0.200 316.800 C 0.200 325.511,0.316 328.172,0.700 328.300 C 0.975 328.392,1.200 328.812,1.200 329.233 C 1.200 329.655,1.380 330.000,1.600 330.000 C 1.820 330.000,2.000 330.288,2.000 330.640 C 2.000 330.991,2.540 331.783,3.200 332.400 C 3.860 333.017,4.400 333.710,4.400 333.940 C 4.400 334.171,5.075 334.861,5.900 335.475 C 6.725 336.089,7.670 336.863,8.000 337.196 C 8.776 337.978,11.909 339.600,12.643 339.600 C 12.955 339.600,13.523 339.765,13.905 339.967 C 16.285 341.223,20.078 341.246,201.200 341.082 C 372.199 340.928,385.238 340.849,386.180 339.959 C 386.389 339.762,386.867 339.600,387.242 339.600 C 388.277 339.600,391.266 337.939,392.460 336.700 C 393.044 336.095,393.679 335.600,393.872 335.600 C 394.244 335.600,395.600 334.153,395.600 333.756 C 395.600 333.627,396.140 333.017,396.800 332.400 C 397.460 331.783,398.000 330.991,398.000 330.640 C 398.000 330.288,398.180 330.000,398.400 330.000 C 398.620 330.000,398.800 329.655,398.800 329.233 C 398.800 328.812,399.025 328.392,399.300 328.300 C 400.026 328.058,400.026 305.542,399.300 305.300 C 399.025 305.208,398.800 304.788,398.800 304.367 C 398.800 303.945,398.620 303.600,398.400 303.600 C 398.180 303.600,398.000 303.240,398.000 302.800 C 398.000 302.360,397.850 302.000,397.668 302.000 C 397.485 302.000,397.080 301.507,396.768 300.905 C 396.002 299.428,392.961 296.400,392.244 296.400 C 391.926 296.400,391.607 296.258,391.533 296.086 C 391.270 295.466,388.861 294.000,388.105 294.000 C 387.681 294.000,387.205 293.871,387.047 293.714 C 385.930 292.597,382.368 292.435,358.500 292.418 C 332.484 292.399,332.787 292.422,334.800 290.600 C 335.240 290.202,335.600 289.634,335.600 289.338 C 335.600 289.042,335.780 288.800,336.000 288.800 C 336.220 288.800,336.400 288.440,336.400 288.000 C 336.400 287.560,336.580 287.200,336.800 287.200 C 337.020 287.200,337.200 286.840,337.200 286.400 C 337.200 285.960,337.380 285.600,337.600 285.600 C 337.820 285.600,338.000 285.251,338.000 284.824 C 338.000 284.397,338.180 283.936,338.400 283.800 C 338.620 283.664,338.800 283.124,338.800 282.600 C 338.800 282.076,338.980 281.536,339.200 281.400 C 339.420 281.264,339.600 280.544,339.600 279.800 C 339.600 279.056,339.780 278.336,340.000 278.200 C 340.220 278.064,340.400 277.063,340.400 275.976 L 340.400 274.000 347.520 274.000 C 351.436 274.000,354.811 273.837,355.020 273.639 C 355.229 273.440,356.210 273.178,357.200 273.057 C 360.543 272.648,362.000 272.314,362.000 271.956 C 362.000 271.760,362.529 271.600,363.176 271.600 C 363.823 271.600,364.464 271.420,364.600 271.200 C 364.736 270.980,365.287 270.800,365.824 270.800 C 366.361 270.800,366.800 270.620,366.800 270.400 C 366.800 270.180,367.072 270.000,367.405 270.000 C 367.738 270.000,368.323 269.841,368.705 269.647 C 369.087 269.452,369.940 269.053,370.600 268.759 C 371.260 268.465,372.552 267.724,373.472 267.112 C 374.392 266.501,375.297 266.000,375.484 266.000 C 375.671 266.000,376.083 265.640,376.400 265.200 C 376.717 264.760,377.257 264.400,377.600 264.400 C 377.943 264.400,378.483 264.040,378.800 263.600 C 379.117 263.160,379.579 262.800,379.827 262.800 C 380.360 262.800,388.800 254.814,388.800 254.310 C 388.800 254.121,389.243 253.487,389.784 252.904 C 390.325 252.320,390.977 251.338,391.233 250.721 C 391.488 250.105,391.855 249.600,392.049 249.600 C 392.242 249.600,392.400 249.280,392.400 248.888 C 392.400 248.497,392.760 247.917,393.200 247.600 C 393.640 247.283,394.000 246.703,394.000 246.312 C 394.000 245.920,394.180 245.600,394.400 245.600 C 394.620 245.600,394.800 245.240,394.800 244.800 C 394.800 244.360,394.980 244.000,395.200 244.000 C 395.420 244.000,395.600 243.640,395.600 243.200 C 395.600 242.760,395.780 242.400,396.000 242.400 C 396.220 242.400,396.400 241.950,396.400 241.400 C 396.400 240.850,396.580 240.400,396.800 240.400 C 397.020 240.400,397.200 239.961,397.200 239.424 C 397.200 238.887,397.380 238.336,397.600 238.200 C 397.820 238.064,398.000 237.524,398.000 237.000 C 398.000 236.476,398.180 235.936,398.400 235.800 C 398.620 235.664,398.800 235.059,398.800 234.456 C 398.800 233.853,399.025 233.135,399.300 232.860 C 399.678 232.482,399.800 229.355,399.800 220.000 C 399.800 210.645,399.678 207.518,399.300 207.140 C 399.025 206.865,398.800 206.136,398.800 205.520 C 398.800 204.904,398.620 204.400,398.400 204.400 C 398.180 204.400,398.000 203.860,398.000 203.200 C 398.000 202.540,397.820 202.000,397.600 202.000 C 397.380 202.000,397.200 201.460,397.200 200.800 C 397.200 200.140,397.020 199.600,396.800 199.600 C 396.580 199.600,396.400 199.240,396.400 198.800 C 396.400 198.360,396.220 198.000,396.000 198.000 C 395.780 198.000,395.596 197.595,395.591 197.100 C 395.586 196.605,395.230 195.750,394.800 195.200 C 394.370 194.650,394.014 193.975,394.009 193.700 C 394.004 193.425,393.820 193.200,393.600 193.200 C 393.380 193.200,393.200 192.930,393.200 192.600 C 393.200 192.270,393.020 192.000,392.800 192.000 C 392.580 192.000,392.400 191.640,392.400 191.200 C 392.400 190.760,392.247 190.400,392.061 190.400 C 391.874 190.400,391.397 189.680,391.000 188.800 C 390.603 187.920,390.126 187.200,389.939 187.200 C 389.753 187.200,389.600 186.964,389.600 186.675 C 389.600 186.387,389.240 185.764,388.800 185.292 C 388.360 184.820,388.000 184.196,388.000 183.905 C 388.000 183.614,387.640 183.117,387.200 182.800 C 386.760 182.483,386.400 182.027,386.400 181.787 C 386.400 181.547,386.085 181.002,385.700 180.575 C 385.315 180.149,384.745 179.305,384.432 178.700 C 384.120 178.095,383.715 177.600,383.532 177.600 C 383.350 177.600,383.200 177.330,383.200 177.000 C 383.200 176.670,383.050 176.400,382.868 176.400 C 382.685 176.400,382.281 175.905,381.970 175.300 C 381.660 174.695,381.089 173.909,380.703 173.553 C 380.316 173.197,380.000 172.652,380.000 172.341 C 380.000 172.031,379.640 171.517,379.200 171.200 C 378.760 170.883,378.400 170.343,378.400 170.000 C 378.400 169.657,378.040 169.117,377.600 168.800 C 377.160 168.483,376.800 167.943,376.800 167.600 C 376.800 167.257,376.440 166.717,376.000 166.400 C 375.560 166.083,375.200 165.591,375.200 165.308 C 375.200 165.024,374.570 163.895,373.800 162.800 C 373.030 161.705,372.400 160.626,372.400 160.404 C 372.400 160.182,372.250 160.000,372.068 160.000 C 371.885 160.000,371.481 159.505,371.170 158.900 C 370.860 158.295,370.289 157.509,369.903 157.153 C 369.516 156.797,369.200 156.252,369.200 155.941 C 369.200 155.631,368.840 155.117,368.400 154.800 C 367.960 154.483,367.600 153.943,367.600 153.600 C 367.600 153.257,367.240 152.717,366.800 152.400 C 366.360 152.083,366.000 151.543,366.000 151.200 C 366.000 150.857,365.640 150.317,365.200 150.000 C 364.760 149.683,364.400 149.143,364.400 148.800 C 364.400 148.457,364.040 147.917,363.600 147.600 C 363.160 147.283,362.800 146.769,362.800 146.459 C 362.800 146.148,362.484 145.603,362.097 145.247 C 361.711 144.891,361.140 144.105,360.830 143.500 C 360.519 142.895,360.115 142.400,359.932 142.400 C 359.750 142.400,359.600 142.130,359.600 141.800 C 359.600 141.470,359.433 141.200,359.229 141.200 C 359.025 141.200,358.540 140.480,358.152 139.600 C 357.764 138.720,357.301 138.000,357.123 138.000 C 356.945 138.000,356.800 137.764,356.800 137.475 C 356.800 137.187,356.485 136.602,356.100 136.175 C 355.715 135.749,355.145 134.905,354.832 134.300 C 354.520 133.695,354.115 133.200,353.932 133.200 C 353.750 133.200,353.600 132.880,353.600 132.488 C 353.600 132.097,353.240 131.517,352.800 131.200 C 352.360 130.883,352.000 130.427,352.000 130.187 C 352.000 129.947,351.685 129.402,351.300 128.975 C 350.915 128.549,350.345 127.705,350.032 127.100 C 349.720 126.495,349.315 126.000,349.132 126.000 C 348.950 126.000,348.800 125.770,348.800 125.488 C 348.800 125.207,348.440 124.717,348.000 124.400 C 347.560 124.083,347.200 123.543,347.200 123.200 C 347.200 122.857,346.840 122.317,346.400 122.000 C 345.960 121.683,345.600 121.143,345.600 120.800 C 345.600 120.457,345.240 119.917,344.800 119.600 C 344.360 119.283,344.000 118.743,344.000 118.400 C 344.000 118.057,343.640 117.517,343.200 117.200 C 342.760 116.883,342.400 116.386,342.400 116.095 C 342.400 115.804,342.217 115.349,341.994 115.083 C 341.221 114.162,339.600 111.563,339.600 111.244 C 339.600 111.068,339.240 110.598,338.800 110.200 C 338.360 109.802,338.000 109.274,338.000 109.026 C 338.000 108.779,337.640 108.317,337.200 108.000 C 336.760 107.683,336.400 107.143,336.400 106.800 C 336.400 106.457,336.040 105.917,335.600 105.600 C 335.160 105.283,334.800 104.743,334.800 104.400 C 334.800 104.057,334.440 103.517,334.000 103.200 C 333.560 102.883,333.200 102.343,333.200 102.000 C 333.200 101.657,332.840 101.117,332.400 100.800 C 331.960 100.483,331.600 99.943,331.600 99.600 C 331.600 99.257,331.240 98.717,330.800 98.400 C 330.360 98.083,330.000 97.569,330.000 97.259 C 330.000 96.948,329.684 96.403,329.297 96.047 C 328.911 95.691,328.340 94.905,328.030 94.300 C 327.719 93.695,327.315 93.200,327.132 93.200 C 326.950 93.200,326.800 92.970,326.800 92.688 C 326.800 92.407,326.440 91.917,326.000 91.600 C 325.560 91.283,325.200 90.725,325.200 90.361 C 325.200 89.996,324.930 89.474,324.600 89.200 C 324.270 88.926,324.000 88.488,324.000 88.226 C 324.000 87.965,323.685 87.402,323.300 86.975 C 322.915 86.549,322.345 85.705,322.032 85.100 C 321.720 84.495,321.315 84.000,321.132 84.000 C 320.950 84.000,320.800 83.775,320.799 83.500 C 320.799 83.225,320.259 82.370,319.600 81.600 C 318.941 80.830,318.391 80.020,318.377 79.800 C 318.363 79.580,317.278 78.410,315.965 77.200 C 314.653 75.990,312.417 73.875,310.997 72.500 C 309.577 71.125,308.231 70.000,308.007 70.000 C 307.783 70.000,307.600 69.850,307.600 69.668 C 307.600 69.485,307.105 69.081,306.500 68.770 C 305.895 68.460,305.109 67.889,304.753 67.503 C 304.397 67.116,303.812 66.800,303.453 66.800 C 303.094 66.800,302.800 66.620,302.800 66.400 C 302.800 66.180,302.440 66.000,302.000 66.000 C 301.560 66.000,301.199 65.865,301.197 65.700 C 301.193 65.341,299.256 64.400,298.520 64.400 C 298.234 64.400,298.000 64.220,298.000 64.000 C 298.000 63.780,297.640 63.600,297.200 63.600 C 296.760 63.600,296.400 63.420,296.400 63.200 C 296.400 62.980,295.986 62.800,295.480 62.800 C 294.974 62.800,294.389 62.651,294.180 62.470 C 293.971 62.288,292.990 61.907,292.000 61.624 C 291.010 61.341,289.840 60.960,289.400 60.779 C 288.591 60.446,287.814 60.307,282.400 59.530 C 278.467 58.965,19.529 58.730,16.600 59.288 M282.600 73.785 C 293.341 76.026,301.715 81.329,308.113 89.940 C 311.090 93.946,313.022 93.600,287.700 93.602 C 275.137 93.604,264.352 93.775,263.000 93.995 C 255.473 95.218,248.644 102.052,247.234 109.773 C 246.643 113.009,246.640 160.169,247.230 163.427 C 248.567 170.801,253.962 176.690,261.628 179.143 C 262.669 179.476,277.237 179.603,315.228 179.613 C 355.606 179.623,367.545 179.736,368.040 180.113 C 368.703 180.618,381.200 199.243,381.200 199.726 C 381.200 199.877,364.436 200.000,343.946 200.000 C 303.535 200.000,304.477 199.950,302.196 202.231 C 299.087 205.340,299.693 210.343,303.429 212.421 C 304.561 213.050,307.877 213.117,345.105 213.262 C 367.351 213.348,385.698 213.565,385.876 213.743 C 386.414 214.281,386.240 225.585,385.656 228.000 C 381.857 243.729,371.316 254.678,356.200 258.596 C 350.536 260.064,352.530 260.049,181.000 259.923 L 13.400 259.800 13.400 236.600 L 13.400 213.400 23.200 213.400 L 33.000 213.400 33.276 218.200 C 33.951 229.946,38.659 236.585,48.187 239.225 C 51.528 240.151,99.891 240.436,104.080 239.554 C 110.909 238.117,116.444 233.041,119.222 225.667 C 119.498 224.934,119.832 221.874,119.962 218.867 L 120.200 213.400 197.598 213.299 C 283.278 213.187,276.480 213.415,278.637 210.587 C 281.114 207.339,279.536 202.453,275.400 200.565 C 274.931 200.351,242.541 200.117,197.200 200.000 L 119.800 199.800 119.594 154.200 C 119.369 104.655,119.522 107.623,116.978 103.384 C 115.142 100.323,113.560 98.662,110.691 96.782 C 105.989 93.700,107.130 93.800,76.600 93.800 L 49.400 93.800 46.800 94.754 C 40.407 97.101,35.887 102.057,34.187 108.587 C 33.688 110.501,33.600 117.533,33.600 155.420 L 33.600 200.000 23.400 200.000 L 13.200 200.000 13.200 139.184 C 13.200 70.192,12.885 76.393,16.495 74.229 L 18.200 73.208 149.000 73.204 C 262.166 73.201,280.177 73.279,282.600 73.785 M156.800 93.857 C 148.407 95.229,141.833 101.995,140.456 110.677 C 139.860 114.438,139.822 159.449,140.413 162.480 C 141.753 169.355,144.110 173.049,149.400 176.563 C 154.128 179.704,152.973 179.600,183.198 179.600 C 209.560 179.600,211.369 179.526,213.695 178.351 C 214.077 178.158,214.581 178.000,214.817 178.000 C 217.757 178.000,224.164 170.523,225.740 165.252 C 226.402 163.036,226.597 112.085,225.954 109.200 C 224.483 102.598,219.914 97.341,213.400 94.753 L 211.000 93.800 184.400 93.746 C 169.770 93.717,157.350 93.767,156.800 93.857 M102.876 107.368 C 103.677 107.748,104.842 108.795,105.466 109.695 L 106.600 111.331 106.720 164.766 C 106.847 221.259,106.840 221.629,105.472 223.658 C 103.400 226.734,104.771 226.586,77.018 226.715 C 48.672 226.846,49.436 226.941,47.262 223.000 C 46.549 221.707,46.204 113.613,46.906 111.108 C 47.310 109.662,49.737 107.273,51.108 106.971 C 51.708 106.838,52.380 106.657,52.600 106.567 C 54.080 105.965,101.512 106.721,102.876 107.368 M200.972 106.665 C 209.746 106.958,210.388 107.146,212.290 109.969 L 213.200 111.318 213.199 136.559 C 213.197 161.378,213.183 161.823,212.369 163.158 C 210.154 166.791,211.788 166.600,182.977 166.600 L 157.674 166.600 156.137 165.372 C 153.050 162.904,153.201 164.384,153.201 136.684 C 153.200 107.840,153.066 108.694,157.874 106.980 C 159.582 106.370,186.341 106.175,200.972 106.665 M312.368 106.749 L 319.335 107.000 338.846 136.200 C 349.577 152.260,358.367 165.715,358.379 166.100 C 358.404 166.945,267.678 167.206,264.667 166.370 C 263.107 165.937,261.402 164.519,260.500 162.905 C 259.493 161.103,259.807 111.852,260.838 110.018 C 261.696 108.492,263.424 107.196,265.200 106.747 C 266.495 106.420,303.289 106.421,312.368 106.749 M62.892 121.440 C 58.784 124.677,59.885 131.441,64.739 132.790 C 66.346 133.236,86.298 133.360,88.412 132.938 C 93.288 131.962,94.675 125.209,90.699 121.806 L 89.056 120.400 76.628 120.404 L 64.200 120.409 62.892 121.440 M63.800 147.598 C 59.042 149.969,59.151 156.657,63.988 159.100 C 66.073 160.153,85.261 160.493,88.464 159.534 C 94.074 157.853,94.787 150.246,89.582 147.591 C 87.202 146.376,66.240 146.382,63.800 147.598 M239.333 274.900 C 236.414 290.252,217.823 298.128,204.400 289.699 C 199.202 286.435,195.003 280.512,194.163 275.259 L 193.898 273.600 216.739 273.600 L 239.580 273.600 239.333 274.900 M325.833 275.300 C 323.506 290.019,304.210 297.913,290.982 289.559 C 285.927 286.366,280.400 278.206,280.400 273.934 C 280.400 273.750,290.683 273.600,303.251 273.600 L 326.102 273.600 325.833 275.300 M266.000 275.176 C 266.000 275.823,266.180 276.464,266.400 276.600 C 266.620 276.736,266.800 277.557,266.800 278.424 C 266.800 279.291,266.980 280.000,267.200 280.000 C 267.420 280.000,267.600 280.540,267.600 281.200 C 267.600 281.860,267.780 282.400,268.000 282.400 C 268.220 282.400,268.400 282.940,268.400 283.600 C 268.400 284.260,268.580 284.800,268.800 284.800 C 269.020 284.800,269.200 285.160,269.200 285.600 C 269.200 286.040,269.380 286.400,269.600 286.400 C 269.820 286.400,270.000 286.760,270.000 287.200 C 270.000 287.640,270.180 288.000,270.400 288.000 C 270.620 288.000,270.800 288.360,270.800 288.800 C 270.800 289.240,270.980 289.600,271.200 289.600 C 271.420 289.600,271.600 289.830,271.600 290.112 C 271.600 290.393,271.960 290.883,272.400 291.200 C 273.948 292.315,273.088 292.400,260.200 292.400 C 246.656 292.400,246.450 292.371,248.000 290.708 C 248.440 290.236,248.800 289.613,248.800 289.325 C 248.800 289.036,248.980 288.800,249.200 288.800 C 249.420 288.800,249.600 288.440,249.600 288.000 C 249.600 287.560,249.780 287.200,250.000 287.200 C 250.220 287.200,250.400 286.840,250.400 286.400 C 250.400 285.960,250.580 285.600,250.800 285.600 C 251.020 285.600,251.200 285.240,251.200 284.800 C 251.200 284.360,251.380 284.000,251.600 284.000 C 251.820 284.000,252.000 283.460,252.000 282.800 C 252.000 282.140,252.180 281.600,252.400 281.600 C 252.620 281.600,252.800 280.981,252.800 280.224 C 252.800 279.467,252.980 278.736,253.200 278.600 C 253.420 278.464,253.600 277.373,253.600 276.176 L 253.600 274.000 259.800 274.000 L 266.000 274.000 266.000 275.176 M382.796 307.600 C 388.428 310.994,387.887 323.530,382.000 326.010 C 379.624 327.011,18.733 326.891,16.898 325.889 C 11.860 323.136,11.673 310.539,16.630 307.700 L 18.200 306.801 200.000 306.900 C 360.772 306.988,381.915 307.069,382.796 307.600 " stroke="none" fill="#040404" fill-rule="evenodd"></path></g></svg>